<?xml version="1.0"?><svg xmlns="http://www.w3.org/2000/svg" xmlns:xlink="http://www.w3.org/1999/xlink" version="1.1" viewBox="0 0 32 32" style="enable-background:new 0 0 32 32;" xml:space="preserve"><style type="text/css">
	.st0{display:none;}
	.st1{display:inline;}
	.st2{fill:#CDF6F9;}
	.st3{fill:#FFFFFF;}
	.st4{fill:#1A83A8;}
</style><g id="Layer_1" class="st0"/><g id="Layer_2"/><g id="Layer_3"/><g id="Layer_4"/><g id="Layer_5"/><g id="Layer_6"/><g id="Layer_7"/><g id="Layer_8"/><g id="Layer_9"/><g id="Layer_10"/><g id="Layer_11"/><g id="Layer_12"/><g id="Layer_13"/><g id="Layer_14"/><g id="Layer_15"/><g id="Layer_16"/><g id="Layer_17"/><g id="Layer_18"/><g id="Layer_19"/><g id="Layer_20"/><g id="Layer_21"/><g id="Layer_22"/><g id="Layer_23"/><g id="Layer_24"/><g id="Layer_25"><circle class="st2" cx="15.125" cy="15.938" r="12.125"/><path class="st4" d="M15.097,8.983c-0.497,0-0.9,0.403-0.9,0.9V16c0,0.279,0.13,0.542,0.351,0.713l4.026,3.105   c0.164,0.126,0.357,0.188,0.549,0.188c0.27,0,0.536-0.121,0.714-0.351c0.304-0.394,0.23-0.959-0.163-1.263l-3.676-2.835V9.884   C15.997,9.387,15.594,8.983,15.097,8.983z"/><path class="st4" d="M29.559,12.726c-0.39-0.311-0.955-0.243-1.264,0.146l-0.467,0.589c-1.193-5.936-6.487-10.46-12.729-10.46   C7.932,3.001,2.1,8.833,2.1,16s5.832,12.999,12.999,12.999c4.812,0,9.205-2.637,11.466-6.882c0.234-0.438,0.068-0.983-0.371-1.217   c-0.438-0.234-0.984-0.066-1.217,0.371c-1.948,3.656-5.732,5.927-9.878,5.927C8.924,27.198,3.9,22.175,3.9,16   S8.924,4.802,15.099,4.802c5.329,0,9.86,3.826,10.942,8.872l-0.595-0.471c-0.39-0.312-0.955-0.243-1.264,0.146   s-0.243,0.955,0.146,1.264l2.295,1.818c0.165,0.132,0.362,0.195,0.558,0.195c0.266,0,0.528-0.117,0.706-0.342l1.818-2.295   C30.014,13.6,29.948,13.034,29.559,12.726z"/></g><g id="Layer_26"/></svg>